HIERARCHY
ROOT Hips
{
	OFFSET 0.000000 0.000000 0.000000
	CHANNELS 6 Xposition Yposition Zposition Zrotation Yrotation Xrotation 
	JOINT LHipJoint
	{
		OFFSET 0.000000 0.000000 0.000000
		CHANNELS 3 Zrotation Yrotation Xrotation
		JOINT LeftUpLeg
		{
			OFFSET 1.363060 -1.794630 0.839290
			CHANNELS 3 Zrotation Yrotation Xrotation
			JOINT LeftLeg
			{
				OFFSET 2.448110 -6.726130 0.000000
				CHANNELS 3 Zrotation Yrotation Xrotation
				JOINT LeftFoot
				{
					OFFSET 2.562200 -7.039590 0.000000
					CHANNELS 3 Zrotation Yrotation Xrotation
					JOINT LeftToeBase
					{
						OFFSET 0.157640 -0.433110 2.322550
						CHANNELS 3 Zrotation Yrotation Xrotation
						End Site
						{
							OFFSET 0.000000 0.000000 0.000000
						}
					}
				}
			}
		}
	}
	JOINT RHipJoint
	{
		OFFSET 0.000000 0.000000 0.000000
		CHANNELS 3 Zrotation Yrotation Xrotation
		JOINT RightUpLeg
		{
			OFFSET -1.305520 -1.794630 0.839290
			CHANNELS 3 Zrotation Yrotation Xrotation
			JOINT RightLeg
			{
				OFFSET -2.542530 -6.985550 0.000000
				CHANNELS 3 Zrotation Yrotation Xrotation
				JOINT RightFoot
				{
					OFFSET -2.568260 -7.056230 0.000000
					CHANNELS 3 Zrotation Yrotation Xrotation
					JOINT RightToeBase
					{
						OFFSET -0.164730 -0.452590 2.363150
						CHANNELS 3 Zrotation Yrotation Xrotation
						End Site
						{
							OFFSET 0.000000 0.000000 0.000000
						}
					}
				}
			}
		}
	}
	JOINT LowerBack
	{
		OFFSET 0.000000 0.000000 0.000000
		CHANNELS 3 Zrotation Yrotation Xrotation
		JOINT Spine
		{
			OFFSET 0.028270 2.035590 -0.193380
			CHANNELS 3 Zrotation Yrotation Xrotation
			JOINT Spine1
			{
				OFFSET 0.056720 2.048850 -0.042750
				CHANNELS 3 Zrotation Yrotation Xrotation
				JOINT Neck
				{
					OFFSET 0.000000 0.000000 0.000000
					CHANNELS 3 Zrotation Yrotation Xrotation
					JOINT Neck1
					{
						OFFSET -0.054170 1.746240 0.172020
						CHANNELS 3 Zrotation Yrotation Xrotation
						JOINT Head
						{
							OFFSET 0.104070 1.761360 -0.123970
							CHANNELS 3 Zrotation Yrotation Xrotation
							End Site
							{
								OFFSET 0.000000 0.000000 0.000000
							}
						}
					}
				}
				JOINT LeftShoulder
				{
					OFFSET 0.000000 0.000000 0.000000
					CHANNELS 3 Zrotation Yrotation Xrotation
					JOINT LeftArm
					{
						OFFSET 3.362410 1.200890 -0.311210
						CHANNELS 3 Zrotation Yrotation Xrotation
						JOINT LeftForeArm
						{
							OFFSET 4.983000 -0.000000 -0.000000
							CHANNELS 3 Zrotation Yrotation Xrotation
							JOINT LeftHand
							{
								OFFSET 3.483560 -0.000000 -0.000000
								CHANNELS 3 Zrotation Yrotation Xrotation
								JOINT LeftFingerBase
								{
									OFFSET 0.000000 0.000000 0.000000
									CHANNELS 3 Zrotation Yrotation Xrotation
									JOINT LeftHandIndex1
									{
										OFFSET 0.715260 -0.000000 -0.000000
										CHANNELS 3 Zrotation Yrotation Xrotation
										End Site
										{
											OFFSET 0.000000 0.000000 0.000000
										}
									}
								}
								JOINT LThumb
								{
									OFFSET 0.000000 0.000000 0.000000
									CHANNELS 3 Zrotation Yrotation Xrotation
									End Site
									{
										OFFSET 0.000000 0.000000 0.000000
									}
								}
							}
						}
					}
				}
				JOINT RightShoulder
				{
					OFFSET 0.000000 0.000000 0.000000
					CHANNELS 3 Zrotation Yrotation Xrotation
					JOINT RightArm
					{
						OFFSET -3.136600 1.374050 -0.404650
						CHANNELS 3 Zrotation Yrotation Xrotation
						JOINT RightForeArm
						{
							OFFSET -5.241900 -0.000000 -0.000000
							CHANNELS 3 Zrotation Yrotation Xrotation
							JOINT RightHand
							{
								OFFSET -3.444170 -0.000000 -0.000000
								CHANNELS 3 Zrotation Yrotation Xrotation
								JOINT RightFingerBase
								{
									OFFSET 0.000000 0.000000 0.000000
									CHANNELS 3 Zrotation Yrotation Xrotation
									JOINT RightHandIndex1
									{
										OFFSET -0.622530 -0.000000 -0.000000
										CHANNELS 3 Zrotation Yrotation Xrotation
										End Site
										{
											OFFSET 0.000000 0.000000 0.000000
										}
									}
								}
								JOINT RThumb
								{
									OFFSET 0.000000 0.000000 0.000000
									CHANNELS 3 Zrotation Yrotation Xrotation
									End Site
									{
										OFFSET 0.000000 0.000000 0.000000
									}
								}
							}
						}
					}
				}
			}
		}
	}
}
MOTION
Frames: 4
Frame Time: 0.008333
17.039735 17.805598 2.396969 -7.382154 -82.573461 11.912809 -11.619346 5.715112 1.868674 -0.699012 9.268557 7.834049 -0.229141 1.376308 13.031956 1.435773 7.486341 22.332573 3.119000 -0.000000 -60.826899 8.796651 -0.129102 2.396998 8.941480 -7.518216 -23.441685 2.289757 1.829400 3.849220 -3.621486 -15.050611 -10.342893 -0.354700 0.000000 -37.819900 1.103269 -7.430425 -6.229565 0.449983 -7.682265 -3.210022 -4.172909 -7.725056 3.671661 10.398611 -25.073902 -12.296154 -1.215799 -0.013646 -1.130248 0.000000 0.000000 0.000000 11.996250 15.882836 -0.450244 -46.653654 -0.553380 -2.716061 -0.676173 -66.462958 -0.101716 16.064524 2.145418 0.259204 -0.243217 0.344826 0.000000 0.000000 0.000000 0.000000 0.000000 0.000000 0.000000 13.511346 -24.746008 0.352451 79.139800 -31.195866 -12.977636 4.865776 22.582509 0.001233 6.944602 1.904994 0.112860 0.102624 0.022295 -0.000000 0.000000 0.000000 0.000000 0.000000 0.000000 0.000000 
16.813083 17.861152 2.363049 -6.789517 -82.758255 10.853779 -11.627908 5.770707 1.787188 -0.427631 9.823995 7.868624 -0.135664 1.451036 14.205299 1.568348 7.941392 23.816185 3.432800 0.000001 -56.386101 8.808235 -0.174994 2.318656 9.415685 -7.786557 -22.542469 2.241051 1.891834 3.187698 -3.728183 -15.726360 -10.122104 -0.440700 0.000000 -37.211000 1.027155 -7.461209 -6.123057 0.452663 -7.707230 -3.182716 -4.079031 -7.757433 3.694945 10.231051 -25.195280 -12.223171 -1.176709 -0.011324 -1.110281 0.000000 0.000000 0.000000 12.283498 16.010574 -0.495088 -46.676157 -0.120501 -2.970256 -0.660351 -66.456763 -0.102226 16.053921 2.028320 0.241673 -0.242017 0.348607 0.000000 0.000000 0.000000 0.000000 0.000000 0.000000 0.000000 13.299137 -24.899050 0.346852 79.550003 -31.590222 -13.451023 4.915695 22.358058 0.000058 7.224539 1.496468 0.091842 0.102341 0.024631 -0.000000 0.000000 0.000000 0.000000 0.000000 0.000000 0.000000 
16.588105 17.906630 2.332604 -6.437758 -83.025117 10.057187 -11.646105 5.800836 1.685683 -0.153035 10.477538 7.761498 -0.060539 1.512733 15.560782 1.692860 8.560796 24.641183 3.786900 -0.000000 -51.746301 8.804699 -0.232770 2.255340 9.886171 -7.931465 -21.705952 2.191122 1.918206 2.853107 -3.836450 -16.362623 -9.998389 -0.498600 0.000000 -36.656500 1.013609 -7.454177 -6.012822 0.462544 -7.699006 -3.156541 -3.998298 -7.755669 3.717154 10.068542 -25.286439 -12.167243 -1.141391 -0.009145 -1.095427 0.000000 0.000000 0.000000 12.491988 16.179161 -0.528324 -46.805476 0.323395 -3.215454 -0.651077 -66.379168 -0.102540 16.073899 1.883328 0.220853 -0.241711 0.351403 0.000000 0.000000 0.000000 0.000000 0.000000 0.000000 0.000000 13.086951 -24.996801 0.348134 79.926994 -31.848467 -13.957711 4.965659 22.114938 -0.000973 7.506577 1.132145 0.071828 0.102168 0.026372 -0.000000 0.000000 0.000000 0.000000 0.000000 0.000000 0.000000 
16.364973 17.941586 2.304820 -6.222205 -83.359784 9.415427 -11.670512 5.809210 1.555194 0.132867 11.259006 7.518383 -0.004605 1.567402 17.080852 1.806800 9.336458 24.841198 4.172100 0.000000 -47.272500 8.791292 -0.299046 2.209279 10.329930 -7.943395 -20.913153 2.139178 1.911572 2.815709 -3.941187 -16.935662 -9.968641 -0.524500 -0.000000 -36.193600 1.042103 -7.415046 -5.890441 0.474490 -7.661575 -3.129112 -3.934848 -7.723385 3.737692 9.923125 -25.349058 -12.127578 -1.111916 -0.007275 -1.085440 0.000000 0.000000 0.000000 12.617961 16.379663 -0.549723 -47.003393 0.775491 -3.439523 -0.647624 -66.244749 -0.102630 16.121693 1.719867 0.197742 -0.242267 0.353036 0.000000 0.000000 0.000000 0.000000 0.000000 0.000000 0.000000 12.896190 -25.044280 0.354077 80.268347 -31.971423 -14.510730 5.013382 21.851397 -0.001797 7.778687 0.828256 0.053917 0.102075 0.027352 -0.000000 0.000000 0.000000 0.000000 0.000000 0.000000 0.000000 
